<svg width="485" height="72" viewBox="0 0 485 72" fill="none" xmlns="http://www.w3.org/2000/svg">
<path d="M117.906 39.2645C120.27 37.256 121.467 34.208 121.467 30.2117C121.467 22.8527 117.247 18.6328 109.888 18.6328H85.873V53.3489H91.6625V24.4223H109.888C114.054 24.4223 115.678 26.0456 115.678 30.2117C115.678 34.3778 114.054 36.0012 109.888 36.0012H97.982L114.46 53.3489H121.918L111.052 41.7534C113.864 41.5753 116.166 40.7388 117.906 39.2603V39.2645Z" fill="#E1E1E6"/>
<path d="M144.869 18.2422H144.857C137.34 18.2422 131.982 20.5282 128.921 25.0255C126.403 28.732 126.113 33.0637 126.113 35.9998C126.113 38.936 126.403 43.2677 128.921 46.9741C131.977 51.4715 137.34 53.7533 144.857 53.7575C144.861 53.7575 144.865 53.7575 144.869 53.7575C152.39 53.7575 157.757 51.4798 160.821 46.9866C163.356 43.2719 163.65 38.9401 163.65 35.9998C163.65 33.0596 163.356 28.7278 160.821 25.0131C157.753 20.5199 152.386 18.2422 144.865 18.2422H144.869ZM156.042 43.7191C154.121 46.5352 150.36 47.9639 144.869 47.9639H144.857C139.374 47.9639 135.622 46.531 133.709 43.715C132.106 41.3586 131.899 38.3521 131.899 35.9957C131.899 33.6393 132.106 30.6328 133.709 28.2764C135.622 25.4604 139.374 24.0317 144.857 24.0275H144.865C150.356 24.0275 154.117 25.4562 156.038 28.2723C157.649 30.6369 157.856 33.6393 157.856 35.9957C157.856 38.3521 157.649 41.3545 156.038 43.7191H156.042Z" fill="#E1E1E6"/>
<path d="M359.597 35.2023C357.642 33.8523 354.983 33.1689 351.687 33.1689H340.547C334.948 33.1689 334.48 30.8954 334.48 28.7668C334.48 26.6382 334.948 24.3647 340.547 24.3647H361.779V18.6953H340.547C337.255 18.6953 334.592 19.3786 332.637 20.7287C330.89 21.9379 328.807 24.3108 328.807 28.7668C328.807 33.2228 330.89 35.5957 332.637 36.805C334.592 38.155 337.251 38.8383 340.547 38.8383H351.687C353.778 38.8383 355.398 39.1945 356.371 39.8653C356.967 40.2753 357.754 41.0746 357.754 43.2404C357.754 45.4063 357.286 47.6426 351.687 47.6426H330.235V53.3119H351.687C354.979 53.3119 357.642 52.6286 359.597 51.2786C361.344 50.0694 363.427 47.6964 363.427 43.2404C363.427 38.7845 361.344 36.4115 359.597 35.2023Z" fill="#E1E1E6"/>
<path d="M257.345 38.8725H278.378V33.083H257.345V24.3988H283.398V18.6094H251.556V53.3461H283.447V47.5566H257.345V38.8725Z" fill="#E1E1E6"/>
<path d="M376.514 38.8725H397.551V33.083H376.514V24.3988H402.57V18.6094H370.724V53.3461H402.616V47.5566H376.514V38.8725Z" fill="#E1E1E6"/>
<path d="M288.607 24.3373H303.081V53.3674H308.875V24.3373H323.348V18.668H288.607V24.3373Z" fill="#E1E1E6"/>
<path d="M484.782 18.668H450.042V24.3373H464.519V53.3674H470.309V24.3373H484.782V18.668Z" fill="#E1E1E6"/>
<path d="M245.518 18.6875H238.225L223.561 35.9979L238.242 53.3456H245.58L231.123 35.9937L245.518 18.6875Z" fill="#E1E1E6"/>
<path d="M217.034 18.6094H210.955V53.3461H217.034V18.6094Z" fill="#E1E1E6"/>
<path d="M433.928 18.6445H420.034C414.298 18.6445 409.635 23.3076 409.635 29.0432V53.3605H415.379V41.4214H438.62V53.3605H444.289V38.9904C444.31 38.8455 444.326 38.7005 444.326 38.5515V29.0432C444.326 23.3076 439.663 18.6445 433.928 18.6445ZM438.583 35.6774H415.379V29.0432C415.379 26.4756 417.466 24.3884 420.034 24.3884H433.928C436.495 24.3884 438.583 26.4756 438.583 29.0432V35.6774Z" fill="#E1E1E6"/>
<path d="M169.476 29.0508V42.9447C169.476 48.6803 174.139 53.3434 179.875 53.3434H204.192V47.5995H179.875C177.308 47.5995 175.22 45.5123 175.22 42.9447V29.0508C175.22 26.4832 177.308 24.3961 179.875 24.3961H204.192V18.6522H179.875C174.139 18.6522 169.476 23.3152 169.476 29.0508Z" fill="#E1E1E6"/>
<path d="M36.9192 49.7402C23.4477 61.2487 13.8814 62.0604 8.98236 57.1572C4.4684 52.6432 8.21208 41.321 17.3352 30.1397L0 12.8086H11.0778L28.2971 30.0279C17.4305 40.9608 11.0944 52.6018 14.3701 55.8775C17.0826 58.5942 25.4314 54.8298 34.4386 47.2596L36.9192 49.7402Z" fill="#E1E1E6"/>
<path d="M68.521 59.1902H57.4432L40.2239 41.9709C51.0905 31.0422 57.4266 19.397 54.155 16.1254C51.4425 13.4088 43.0855 17.1773 34.0783 24.7475L31.5977 22.2669C45.0733 10.7543 54.6437 9.9384 59.5427 14.8416C64.0567 19.3556 60.3172 30.6778 51.1899 41.8591L68.5251 59.1902H68.521Z" fill="#E1E1E6"/>
</svg>
