<svg width="42" height="38" viewBox="0 0 42 38" fill="none" xmlns="http://www.w3.org/2000/svg">
<g opacity="0.9">
<rect x="18.75" y="15.4043" width="22.5" height="22.5" rx="11.25" fill="#42A5F5"/>
<path d="M26.1895 21.6387L25.8356 23.4996H33.2345L32.995 24.7031H25.6015L25.2422 26.5584H32.6411L32.2273 28.6812L29.2438 29.6897L26.6577 28.6812L26.8374 27.7675H25.019L24.5889 29.9961L28.8627 31.6676L33.7899 29.9961L34.4432 26.6364L34.5738 25.9623L35.4123 21.6387H26.1895Z" fill="white"/>
</g>
<g opacity="0.9">
<rect x="0.75" y="15.4043" width="22.5" height="22.5" rx="11.25" fill="#E44D26"/>
<g clip-path="url(#clip0_4103_160)">
<rect width="10.5" height="12" transform="translate(6.75 20.6543)" fill="white"/>
<path d="M11.9998 32.1754L15.5159 31.2062L15.9911 25.9743H9.73631L9.58081 24.2332H16.1466L16.3193 22.5264H7.6802L8.16399 27.6811H14.1164L13.9177 29.8939L11.9998 30.4085L10.0819 29.8939L9.96093 28.4702H8.2331L8.48364 31.2062L11.9998 32.1754ZM5.14893 19.6875H18.8506L17.6152 33.5819L11.9998 35.1258L6.38432 33.5819L5.14893 19.6875Z" fill="white"/>
<path d="M11.9998 32.1754L15.5159 31.2062L15.9911 25.9743H9.73631L9.58081 24.2332H16.1466L16.3193 22.5264H7.6802L8.16399 27.6811H14.1164L13.9177 29.8939L11.9998 30.4085L10.0819 29.8939L9.96093 28.4702H8.2331L8.48364 31.2062L11.9998 32.1754ZM5.14893 19.6875H18.8506L17.6152 33.5819L11.9998 35.1258L6.38432 33.5819L5.14893 19.6875Z" fill="#E44D26"/>
</g>
</g>
<g opacity="0.9">
<rect x="9.75" y="0.404297" width="22.5" height="22.5" rx="11.25" fill="#E5D130"/>
<path d="M14.9897 14.3113L16.385 13.4806C16.6542 13.9503 16.8992 14.3475 17.4866 14.3475C18.0495 14.3475 18.4045 14.1319 18.4045 13.2879V7.55625H20.1181V13.3116C20.1181 15.0574 19.0779 15.8522 17.5603 15.8522C17.0238 15.8808 16.491 15.7488 16.0323 15.4737C15.5735 15.1985 15.2102 14.7931 14.9902 14.3108L14.9897 14.3113ZM21.0492 14.1301L22.4444 13.3353C22.5996 13.6449 22.8404 13.9053 23.1392 14.0863C23.4379 14.2673 23.7826 14.3617 24.1334 14.3587C24.8436 14.3587 25.296 14.0094 25.296 13.5277C25.296 12.9498 24.8309 12.7449 24.0475 12.4063L23.6206 12.2278C22.3844 11.7103 21.5642 11.0599 21.5642 9.68717C21.5642 8.42267 22.5435 7.45964 24.0734 7.45964C24.5691 7.42429 25.0644 7.53333 25.4975 7.77316C25.9306 8.01299 26.2824 8.37298 26.5089 8.80823L25.1745 9.65137C25.087 9.43532 24.9347 9.25054 24.738 9.12153C24.5413 8.99253 24.3093 8.92538 24.0729 8.92899C23.9699 8.91873 23.8658 8.92973 23.7673 8.96127C23.6688 8.99281 23.5781 9.04421 23.5009 9.11218C23.4237 9.18016 23.3618 9.26321 23.3191 9.35605C23.2764 9.44889 23.2538 9.54947 23.2528 9.65137C23.2528 10.1573 23.571 10.3617 24.3048 10.6748L24.7331 10.8555C26.1898 11.4696 27.0095 12.0958 27.0095 13.5044C27.0095 15.0216 25.7979 15.8526 24.1703 15.8526C22.579 15.8526 21.5511 15.1061 21.0492 14.1306" fill="#09090A"/>
</g>
<defs>
<clipPath id="clip0_4103_160">
<rect width="10.5" height="12" fill="white" transform="translate(6.75 20.6543)"/>
</clipPath>
</defs>
</svg>
