<svg width="107" height="101" viewBox="0 0 107 101" fill="none" xmlns="http://www.w3.org/2000/svg">
<g filter="url(#filter0_f_4103_156)">
<path d="M84.7493 29.0471C79.416 21.2791 68.9871 17.3398 53.7577 17.3398H53.7329C38.5265 17.3441 28.1233 21.2851 22.813 29.0531C18.3673 35.5553 17.7979 43.8453 17.7979 50.3398C17.7979 56.8344 18.3673 65.1236 22.813 71.6258C28.1233 79.393 38.5265 83.3339 53.7337 83.3398H53.7637C68.9923 83.3398 79.4169 79.4014 84.7502 71.6334C89.2232 65.1167 89.7979 56.831 89.7979 50.3407C89.7979 43.8504 89.2249 35.5647 84.751 29.0488H84.7502L84.7493 29.0471Z" fill="url(#paint0_linear_4103_156)"/>
</g>
<path d="M83.7573 29.6742C78.595 22.1552 68.5005 18.3418 53.7593 18.3418H53.7345C39.0155 18.346 28.9458 22.1603 23.8066 29.6793C19.5037 35.9732 18.9521 43.9971 18.9521 50.2835C18.9521 56.5698 19.5037 64.5928 23.8066 70.8868C28.9466 78.4049 39.0164 82.22 53.7353 82.2251H53.7636C68.5039 82.2251 78.5942 78.4125 83.7564 70.8936C88.0867 64.586 88.6425 56.5655 88.6425 50.2835C88.6425 44.0014 88.0875 35.9818 83.7573 29.6742Z" fill="#09090A"/>
<g opacity="0.9">
<rect x="51.75" y="44.4043" width="22.5" height="22.5" rx="11.25" fill="#42A5F5"/>
<path d="M59.1895 50.6387L58.8356 52.4996H66.2345L65.995 53.7031H58.6015L58.2422 55.5584H65.6411L65.2273 57.6812L62.2438 58.6897L59.6577 57.6812L59.8374 56.7675H58.019L57.5889 58.9961L61.8627 60.6676L66.7899 58.9961L67.4432 55.6364L67.5738 54.9623L68.4123 50.6387H59.1895Z" fill="white"/>
</g>
<g opacity="0.9">
<rect x="33.75" y="44.4043" width="22.5" height="22.5" rx="11.25" fill="#E44D26"/>
<g clip-path="url(#clip0_4103_156)">
<rect width="10.5" height="12" transform="translate(39.75 49.6543)" fill="white"/>
<path d="M44.9998 61.1754L48.5159 60.2062L48.9911 54.9743H42.7363L42.5808 53.2332H49.1466L49.3193 51.5264H40.6802L41.164 56.6811H47.1164L46.9177 58.8939L44.9998 59.4085L43.0819 58.8939L42.9609 57.4702H41.2331L41.4836 60.2062L44.9998 61.1754ZM38.1489 48.6875H51.8506L50.6152 62.5819L44.9998 64.1258L39.3843 62.5819L38.1489 48.6875Z" fill="white"/>
<path d="M44.9998 61.1754L48.5159 60.2062L48.9911 54.9743H42.7363L42.5808 53.2332H49.1466L49.3193 51.5264H40.6802L41.164 56.6811H47.1164L46.9177 58.8939L44.9998 59.4085L43.0819 58.8939L42.9609 57.4702H41.2331L41.4836 60.2062L44.9998 61.1754ZM38.1489 48.6875H51.8506L50.6152 62.5819L44.9998 64.1258L39.3843 62.5819L38.1489 48.6875Z" fill="#E44D26"/>
</g>
</g>
<g opacity="0.9">
<rect x="42.75" y="29.4043" width="22.5" height="22.5" rx="11.25" fill="#E5D130"/>
<path d="M47.9897 43.3113L49.385 42.4806C49.6542 42.9503 49.8992 43.3475 50.4866 43.3475C51.0495 43.3475 51.4045 43.1319 51.4045 42.2879V36.5562H53.1181V42.3116C53.1181 44.0574 52.0779 44.8522 50.5603 44.8522C50.0238 44.8808 49.491 44.7488 49.0323 44.4737C48.5735 44.1985 48.2102 43.7931 47.9902 43.3108L47.9897 43.3113ZM54.0492 43.1301L55.4444 42.3353C55.5996 42.6449 55.8404 42.9053 56.1392 43.0863C56.4379 43.2673 56.7826 43.3617 57.1334 43.3587C57.8436 43.3587 58.296 43.0094 58.296 42.5277C58.296 41.9498 57.8309 41.7449 57.0475 41.4063L56.6206 41.2278C55.3844 40.7103 54.5642 40.0599 54.5642 38.6872C54.5642 37.4227 55.5435 36.4596 57.0734 36.4596C57.5691 36.4243 58.0644 36.5333 58.4975 36.7732C58.9306 37.013 59.2824 37.373 59.5089 37.8082L58.1745 38.6514C58.087 38.4353 57.9347 38.2505 57.738 38.1215C57.5413 37.9925 57.3093 37.9254 57.0729 37.929C56.9699 37.9187 56.8658 37.9297 56.7673 37.9613C56.6688 37.9928 56.5781 38.0442 56.5009 38.1122C56.4237 38.1802 56.3618 38.2632 56.3191 38.356C56.2764 38.4489 56.2538 38.5495 56.2528 38.6514C56.2528 39.1573 56.571 39.3617 57.3048 39.6748L57.7331 39.8555C59.1898 40.4696 60.0095 41.0958 60.0095 42.5044C60.0095 44.0216 58.7979 44.8526 57.1703 44.8526C55.579 44.8526 54.5511 44.1061 54.0492 43.1306" fill="#09090A"/>
</g>
<defs>
<filter id="filter0_f_4103_156" x="0.695713" y="0.237705" width="106.204" height="100.204" filterUnits="userSpaceOnUse" color-interpolation-filters="sRGB">
<feFlood flood-opacity="0" result="BackgroundImageFix"/>
<feBlend mode="normal" in="SourceGraphic" in2="BackgroundImageFix" result="shape"/>
<feGaussianBlur stdDeviation="8.55107" result="effect1_foregroundBlur_4103_156"/>
</filter>
<linearGradient id="paint0_linear_4103_156" x1="17.797" y1="50.339" x2="89.797" y2="50.339" gradientUnits="userSpaceOnUse">
<stop stop-color="#CE4623"/>
<stop offset="0.46875" stop-color="#CFBD2C"/>
<stop offset="1" stop-color="#3C95DD" stop-opacity="0.25"/>
</linearGradient>
<clipPath id="clip0_4103_156">
<rect width="10.5" height="12" fill="white" transform="translate(39.75 49.6543)"/>
</clipPath>
</defs>
</svg>
